<svg width="1676" height="248" viewBox="0 0 1676 248" fill="none" xmlns="http://www.w3.org/2000/svg">
<path d="M224.21 225.056V23.456H263.09V103.232L335.954 23.456H383.762L309.746 103.232L386.066 225.056H338.546L281.81 133.472L263.09 153.632V225.056H224.21Z" fill="#1A1A1A"/>
<path d="M473.492 228.512C453.332 228.512 435.956 224.192 421.364 215.552C406.964 206.72 395.828 194.528 387.956 178.976C380.276 163.232 376.436 145.088 376.436 124.544C376.436 104 380.276 85.856 387.956 70.112C395.828 54.368 406.964 42.08 421.364 33.248C435.956 24.416 453.332 20 473.492 20C497.876 20 517.844 26.048 533.396 38.144C548.948 50.24 558.644 67.328 562.484 89.408H520.148C517.652 78.656 512.372 70.304 504.308 64.352C496.436 58.208 486.068 55.136 473.204 55.136C461.3 55.136 451.028 58.016 442.388 63.776C433.94 69.344 427.412 77.312 422.804 87.68C418.196 97.856 415.892 110.144 415.892 124.544C415.892 138.752 418.196 151.04 422.804 161.408C427.412 171.776 433.94 179.744 442.388 185.312C451.028 190.88 461.3 193.664 473.204 193.664C486.068 193.664 496.436 190.88 504.308 185.312C512.18 179.552 517.364 171.584 519.86 161.408H562.484C558.644 182.336 548.948 198.752 533.396 210.656C517.844 222.56 497.876 228.512 473.492 228.512Z" fill="#1A1A1A"/>
<path d="M581.285 225.056V23.456H713.765V54.848H620.165V107.552H705.125V137.792H620.165V193.664H713.765V225.056H581.285Z" fill="#1A1A1A"/>
<path d="M803.047 228.512C788.455 228.512 775.495 225.92 764.167 220.736C752.839 215.552 744.007 208.16 737.671 198.56C731.335 188.96 728.071 177.536 727.879 164.288H764.455C764.455 171.008 765.991 177.056 769.063 182.432C772.327 187.616 776.743 191.744 782.311 194.816C788.071 197.888 794.983 199.424 803.047 199.424C809.959 199.424 815.911 198.368 820.903 196.256C826.087 193.952 830.023 190.784 832.711 186.752C835.591 182.528 837.031 177.632 837.031 172.064C837.031 165.728 835.495 160.544 832.423 156.512C829.543 152.288 825.511 148.736 820.327 145.856C815.143 142.976 809.191 140.48 802.471 138.368C795.751 136.064 788.647 133.664 781.159 131.168C765.223 125.792 753.223 118.976 745.159 110.72C737.095 102.272 733.063 91.04 733.063 77.024C733.063 65.312 735.847 55.232 741.415 46.784C746.983 38.336 754.759 31.808 764.743 27.2C774.919 22.4 786.631 20 799.879 20C813.319 20 825.031 22.4 835.015 27.2C845.191 32 853.159 38.72 858.919 47.36C864.871 55.808 867.943 65.984 868.135 77.888H831.271C831.079 72.896 829.735 68.288 827.239 64.064C824.743 59.648 821.095 56.096 816.295 53.408C811.687 50.528 806.023 49.088 799.303 49.088C793.543 48.896 788.359 49.856 783.751 51.968C779.335 53.888 775.783 56.768 773.095 60.608C770.599 64.256 769.351 68.864 769.351 74.432C769.351 79.808 770.503 84.32 772.807 87.968C775.303 91.424 778.855 94.4 783.463 96.896C788.071 99.2 793.447 101.408 799.591 103.52C805.735 105.632 812.455 107.936 819.751 110.432C829.735 113.696 838.759 117.728 846.823 122.528C855.079 127.136 861.607 133.184 866.407 140.672C871.207 148.16 873.607 157.856 873.607 169.76C873.607 180.128 870.919 189.824 865.543 198.848C860.167 207.68 852.295 214.88 841.927 220.448C831.559 225.824 818.599 228.512 803.047 228.512Z" fill="#1A1A1A"/>
<path d="M953.579 228.512C938.795 228.512 925.835 225.92 914.699 220.736C903.755 215.36 895.211 207.872 889.067 198.272C882.923 188.672 879.755 177.44 879.563 164.576H909.803C909.995 171.872 911.627 178.592 914.699 184.736C917.963 190.688 922.859 195.488 929.387 199.136C935.915 202.592 943.979 204.32 953.579 204.32C961.451 204.32 968.363 203.168 974.315 200.864C980.267 198.56 984.875 195.2 988.139 190.784C991.595 186.176 993.323 180.416 993.323 173.504C993.323 166.592 991.691 160.832 988.427 156.224C985.355 151.616 981.035 147.776 975.467 144.704C969.899 141.632 963.755 138.944 957.035 136.64C950.315 134.336 943.403 131.936 936.299 129.44C919.211 123.488 906.443 116.192 897.995 107.552C889.739 98.72 885.611 87.584 885.611 74.144C885.611 63.584 888.299 54.272 893.675 46.208C899.051 37.952 906.635 31.52 916.427 26.912C926.219 22.304 937.643 20 950.699 20C963.755 20 975.179 22.4 984.971 27.2C994.763 32 1002.44 38.624 1008.01 47.072C1013.58 55.52 1016.36 65.408 1016.36 76.736H986.123C985.931 70.208 984.395 64.544 981.515 59.744C978.635 54.752 974.507 50.816 969.131 47.936C963.755 45.056 957.035 43.616 948.971 43.616C942.635 43.616 936.875 44.576 931.691 46.496C926.507 48.416 922.379 51.488 919.307 55.712C916.427 59.744 914.987 65.12 914.987 71.84C914.987 77.408 916.139 82.112 918.443 85.952C920.939 89.792 924.491 93.152 929.099 96.032C933.899 98.72 939.659 101.408 946.379 104.096C953.099 106.592 960.779 109.472 969.419 112.736C979.403 116.192 988.331 120.32 996.203 125.12C1004.27 129.728 1010.6 135.68 1015.21 142.976C1020.01 150.08 1022.41 159.296 1022.41 170.624C1022.41 180.608 1019.82 190.016 1014.63 198.848C1009.45 207.68 1001.77 214.88 991.595 220.448C981.419 225.824 968.747 228.512 953.579 228.512Z" fill="#1A1A1A"/>
<path d="M1101.01 228.512C1086.22 228.512 1073.36 225.824 1062.41 220.448C1051.47 215.072 1043.02 207.584 1037.07 197.984C1031.12 188.384 1028.14 177.248 1028.14 164.576H1053.49C1053.49 172.448 1055.31 179.744 1058.96 186.464C1062.61 192.992 1067.89 198.272 1074.8 202.304C1081.9 206.144 1090.64 208.064 1101.01 208.064C1110.03 208.064 1117.71 206.624 1124.05 203.744C1130.57 200.672 1135.47 196.544 1138.73 191.36C1142.19 186.176 1143.92 180.32 1143.92 173.792C1143.92 165.92 1142.19 159.584 1138.73 154.784C1135.47 149.792 1130.96 145.76 1125.2 142.688C1119.44 139.616 1112.72 136.928 1105.04 134.624C1097.55 132.128 1089.68 129.536 1081.42 126.848C1065.49 121.472 1053.77 114.752 1046.29 106.688C1038.8 98.624 1035.05 88.16 1035.05 75.296C1035.05 64.352 1037.55 54.752 1042.54 46.496C1047.73 38.24 1055.02 31.808 1064.43 27.2C1074.03 22.4 1085.36 20 1098.41 20C1111.28 20 1122.41 22.4 1131.82 27.2C1141.42 32 1148.91 38.624 1154.29 47.072C1159.66 55.328 1162.35 64.928 1162.35 75.872H1137.01C1137.01 70.304 1135.57 64.832 1132.69 59.456C1129.81 54.08 1125.39 49.664 1119.44 46.208C1113.68 42.56 1106.38 40.736 1097.55 40.736C1090.25 40.544 1083.73 41.792 1077.97 44.48C1072.4 46.976 1067.98 50.624 1064.72 55.424C1061.65 60.224 1060.11 66.08 1060.11 72.992C1060.11 79.52 1061.45 84.8 1064.14 88.832C1067.02 92.864 1071.05 96.32 1076.24 99.2C1081.61 101.888 1087.85 104.384 1094.96 106.688C1102.06 108.992 1109.93 111.584 1118.57 114.464C1128.37 117.728 1137.01 121.76 1144.49 126.56C1152.17 131.168 1158.13 137.12 1162.35 144.416C1166.77 151.712 1168.97 161.024 1168.97 172.352C1168.97 181.952 1166.38 191.072 1161.2 199.712C1156.21 208.16 1148.72 215.072 1138.73 220.448C1128.75 225.824 1116.17 228.512 1101.01 228.512Z" fill="#1A1A1A"/>
<path d="M1190.31 225.056V23.456H1210.47V225.056H1190.31Z" fill="#1A1A1A"/>
<path d="M1240.88 225.056V23.456H1308.56C1322.76 23.456 1334.48 25.76 1343.69 30.368C1352.91 34.976 1359.72 41.12 1364.14 48.8C1368.75 56.48 1371.05 65.024 1371.05 74.432C1371.05 84.8 1368.75 93.44 1364.14 100.352C1359.72 107.264 1353.87 112.544 1346.57 116.192C1339.47 119.84 1331.98 122.144 1324.11 123.104L1327.85 120.224C1336.3 120.416 1344.17 122.72 1351.47 127.136C1358.76 131.552 1364.62 137.504 1369.04 144.992C1373.45 152.288 1375.66 160.64 1375.66 170.048C1375.66 180.032 1373.16 189.248 1368.17 197.696C1363.37 205.952 1356.17 212.576 1346.57 217.568C1336.97 222.56 1324.97 225.056 1310.57 225.056H1240.88ZM1261.04 208.064H1309.13C1323.72 208.064 1334.96 204.608 1342.83 197.696C1350.89 190.784 1354.92 181.28 1354.92 169.184C1354.92 157.088 1350.7 147.488 1342.25 140.384C1334 133.088 1322.67 129.44 1308.27 129.44H1261.04V208.064ZM1261.04 112.736H1307.98C1321.61 112.736 1332.08 109.472 1339.37 102.944C1346.67 96.416 1350.32 87.584 1350.32 76.448C1350.32 65.696 1346.76 57.056 1339.66 50.528C1332.56 43.808 1321.71 40.448 1307.12 40.448H1261.04V112.736Z" fill="#1A1A1A"/>
<path d="M1398.04 225.056V23.456H1418.2V208.64H1513.53V225.056H1398.04Z" fill="#1A1A1A"/>
<path d="M1533.26 225.056V23.456H1655.66V40.16H1553.42V115.328H1647.02V132.032H1553.42V208.352H1655.66V225.056H1533.26Z" fill="#1A1A1A"/>
<path fill-rule="evenodd" clip-rule="evenodd" d="M94.6142 23.456L20.8862 225.056H61.7822L77.7172 179.264L88.2402 149.024L116.502 67.808L144.615 149.024L155.083 179.264L170.934 225.056H212.118L138.678 23.456H94.6142Z" fill="#1A1A1A"/>
</svg>
