<svg width="1307" height="215" viewBox="0 0 1307 215" fill="none" xmlns="http://www.w3.org/2000/svg">
<path d="M20.7202 192L82.1602 24H118.88L180.08 192H145.76L100.4 60.96L54.8002 192H20.7202Z" fill="#1A1A1A"/>
<path d="M180.08 192V24H212.48V90.48L273.2 24H313.04L251.36 90.48L314.96 192H275.36L228.08 115.68L212.48 132.48V192H180.08Z" fill="#1A1A1A"/>
<path d="M395.84 194.76C379.04 194.76 364.56 191.16 352.4 183.96C340.4 176.6 331.12 166.44 324.56 153.48C318.16 140.36 314.96 125.24 314.96 108.12C314.96 91 318.16 75.88 324.56 62.76C331.12 49.64 340.4 39.4 352.4 32.04C364.56 24.68 379.04 21 395.84 21C416.16 21 432.8 26.04 445.76 36.12C458.72 46.2 466.8 60.44 470 78.84H434.72C432.64 69.88 428.24 62.92 421.52 57.96C414.96 52.84 406.32 50.28 395.6 50.28C385.68 50.28 377.12 52.68 369.92 57.48C362.88 62.12 357.44 68.76 353.6 77.4C349.76 85.88 347.84 96.12 347.84 108.12C347.84 119.96 349.76 130.2 353.6 138.84C357.44 147.48 362.88 154.12 369.92 158.76C377.12 163.4 385.68 165.72 395.6 165.72C406.32 165.72 414.96 163.4 421.52 158.76C428.08 153.96 432.4 147.32 434.48 138.84H470C466.8 156.28 458.72 169.96 445.76 179.88C432.8 189.8 416.16 194.76 395.84 194.76Z" fill="#1A1A1A"/>
<path d="M470 192V24H580.4V50.16H502.4V94.08H573.2V119.28H502.4V165.84H580.4V192H470Z" fill="#1A1A1A"/>
<path d="M644 194.76C631.84 194.76 620.96 192.68 611.36 188.52C601.92 184.36 594.4 178.28 588.8 170.28C583.36 162.28 580.56 152.6 580.4 141.24H614.72C614.88 146.2 616.16 150.68 618.56 154.68C620.96 158.68 624.24 161.88 628.4 164.28C632.72 166.52 637.84 167.64 643.76 167.64C648.88 167.64 653.28 166.84 656.96 165.24C660.8 163.48 663.76 161.08 665.84 158.04C667.92 155 668.96 151.4 668.96 147.24C668.96 142.44 667.76 138.44 665.36 135.24C663.12 132.04 659.92 129.32 655.76 127.08C651.76 124.84 647.04 122.84 641.6 121.08C636.32 119.16 630.72 117.16 624.8 115.08C611.52 110.76 601.36 105 594.32 97.8C587.44 90.6 584 81.08 584 69.24C584 59.16 586.4 50.52 591.2 43.32C596.16 36.12 602.96 30.6 611.6 26.76C620.24 22.92 630.08 21 641.12 21C652.48 21 662.4 23 670.88 27C679.52 30.84 686.32 36.44 691.28 43.8C696.4 51.16 699.04 59.8 699.2 69.72H664.64C664.48 66.04 663.36 62.6 661.28 59.4C659.36 56.04 656.64 53.4 653.12 51.48C649.6 49.4 645.44 48.36 640.64 48.36C636.48 48.2 632.64 48.84 629.12 50.28C625.76 51.72 623.04 53.88 620.96 56.76C619.04 59.48 618.08 62.92 618.08 67.08C618.08 71.08 619.04 74.44 620.96 77.16C623.04 79.88 625.84 82.28 629.36 84.36C632.88 86.28 637.04 88.12 641.84 89.88C646.64 91.48 651.84 93.16 657.44 94.92C665.76 97.8 673.44 101.24 680.48 105.24C687.52 109.08 693.12 114.12 697.28 120.36C701.44 126.6 703.52 134.84 703.52 145.08C703.52 153.88 701.2 162.04 696.56 169.56C691.92 177.08 685.2 183.16 676.4 187.8C667.76 192.44 656.96 194.76 644 194.76Z" fill="#1A1A1A"/>
<path d="M766.16 194.76C754 194.76 743.2 192.6 733.76 188.28C724.32 183.96 716.96 177.8 711.68 169.8C706.4 161.8 703.68 152.28 703.52 141.24H734C734 146.84 735.28 151.88 737.84 156.36C740.56 160.68 744.24 164.12 748.88 166.68C753.68 169.24 759.44 170.52 766.16 170.52C771.92 170.52 776.88 169.64 781.04 167.88C785.36 165.96 788.64 163.32 790.88 159.96C793.28 156.44 794.48 152.36 794.48 147.72C794.48 142.44 793.2 138.12 790.64 134.76C788.24 131.24 784.88 128.28 780.56 125.88C776.24 123.48 771.28 121.4 765.68 119.64C760.08 117.72 754.16 115.72 747.92 113.64C734.64 109.16 724.64 103.48 717.92 96.6C711.2 89.56 707.84 80.2 707.84 68.52C707.84 58.76 710.16 50.36 714.8 43.32C719.44 36.28 725.92 30.84 734.24 27C742.72 23 752.48 21 763.52 21C774.72 21 784.48 23 792.8 27C801.28 31 807.92 36.6 812.72 43.8C817.68 50.84 820.24 59.32 820.4 69.24H789.68C789.52 65.08 788.4 61.24 786.32 57.72C784.24 54.04 781.2 51.08 777.2 48.84C773.36 46.44 768.64 45.24 763.04 45.24C758.24 45.08 753.92 45.88 750.08 47.64C746.4 49.24 743.44 51.64 741.2 54.84C739.12 57.88 738.08 61.72 738.08 66.36C738.08 70.84 739.04 74.6 740.96 77.64C743.04 80.52 746 83 749.84 85.08C753.68 87 758.16 88.84 763.28 90.6C768.4 92.36 774 94.28 780.08 96.36C788.4 99.08 795.92 102.44 802.64 106.44C809.52 110.28 814.96 115.32 818.96 121.56C822.96 127.8 824.96 135.88 824.96 145.8C824.96 154.44 822.72 162.52 818.24 170.04C813.76 177.4 807.2 183.4 798.56 188.04C789.92 192.52 779.12 194.76 766.16 194.76Z" fill="#1A1A1A"/>
<path d="M886.64 194.76C874.32 194.76 863.52 192.6 854.24 188.28C844.96 183.8 837.76 177.56 832.64 169.56C827.52 161.56 824.96 152.2 824.96 141.48H850.16C850.32 147.56 851.76 153.16 854.48 158.28C857.36 163.24 861.44 167.24 866.72 170.28C872.16 173.16 878.8 174.6 886.64 174.6C893.36 174.6 899.12 173.48 903.92 171.24C908.88 169 912.64 165.96 915.2 162.12C917.76 158.12 919.04 153.56 919.04 148.44C919.04 142.52 917.68 137.64 914.96 133.8C912.24 129.96 908.56 126.84 903.92 124.44C899.44 121.88 894.16 119.64 888.08 117.72C882.16 115.8 875.92 113.72 869.36 111.48C856.08 107.16 846.16 101.56 839.6 94.68C833.2 87.8 830 78.84 830 67.8C830 58.36 832.24 50.2 836.72 43.32C841.2 36.28 847.44 30.84 855.44 27C863.6 23 873.2 21 884.24 21C895.12 21 904.64 23 912.8 27C920.96 31 927.36 36.52 932 43.56C936.64 50.6 938.96 58.84 938.96 68.28H913.52C913.52 63.96 912.4 59.72 910.16 55.56C907.92 51.4 904.56 48.04 900.08 45.48C895.6 42.76 890.08 41.4 883.52 41.4C878.08 41.24 873.2 42.12 868.88 44.04C864.56 45.96 861.2 48.76 858.8 52.44C856.4 56.12 855.2 60.52 855.2 65.64C855.2 70.76 856.24 74.92 858.32 78.12C860.56 81.16 863.76 83.8 867.92 86.04C872.08 88.28 876.88 90.36 882.32 92.28C887.92 94.04 894.08 96.04 900.8 98.28C909.12 101 916.48 104.36 922.88 108.36C929.44 112.2 934.56 117.24 938.24 123.48C942.08 129.56 944 137.4 944 147C944 155.32 941.84 163.08 937.52 170.28C933.2 177.48 926.8 183.4 918.32 188.04C909.84 192.52 899.28 194.76 886.64 194.76Z" fill="#1A1A1A"/>
<path d="M944 192V24H964.16V192H944Z" fill="#1A1A1A"/>
<path d="M968.16 192V24H1027.2C1039.04 24 1048.8 25.92 1056.48 29.76C1064.32 33.44 1070.16 38.56 1074 45.12C1077.84 51.52 1079.76 58.72 1079.76 66.72C1079.76 75.36 1077.84 82.56 1074 88.32C1070.32 94.08 1065.44 98.48 1059.36 101.52C1053.44 104.56 1047.12 106.4 1040.4 107.04L1043.76 104.64C1050.96 104.8 1057.6 106.72 1063.68 110.4C1069.76 114.08 1074.56 119.04 1078.08 125.28C1081.76 131.52 1083.6 138.48 1083.6 146.16C1083.6 154.64 1081.52 162.4 1077.36 169.44C1073.2 176.32 1067.04 181.84 1058.88 186C1050.88 190 1040.96 192 1029.12 192H968.16ZM988.32 175.2H1026.96C1038.32 175.2 1047.12 172.56 1053.36 167.28C1059.76 161.84 1062.96 154.32 1062.96 144.72C1062.96 135.28 1059.68 127.76 1053.12 122.16C1046.72 116.4 1037.84 113.52 1026.48 113.52H988.32V175.2ZM988.32 97.44H1025.76C1036.64 97.44 1044.88 94.88 1050.48 89.76C1056.24 84.64 1059.12 77.68 1059.12 68.88C1059.12 60.4 1056.24 53.6 1050.48 48.48C1044.88 43.36 1036.4 40.8 1025.04 40.8H988.32V97.44Z" fill="#1A1A1A"/>
<path d="M1083.6 192V24H1103.76V175.92H1182V192H1083.6Z" fill="#1A1A1A"/>
<path d="M1182 192V24H1285.92V40.56H1202.16V99.12H1278.72V115.44H1202.16V175.44H1285.92V192H1182Z" fill="#1A1A1A"/>
</svg>
