<svg xmlns="http://www.w3.org/2000/svg" width="717" height="717" viewBox="0 0 717 717" fill="none"><metadata><rdf:RDF xmlns:rdf="http://www.w3.org/1999/02/22-rdf-syntax-ns#" xmlns:dc="http://purl.org/dc/elements/1.1/"><rdf:Description><dc:creator>RealFaviconGenerator</dc:creator><dc:source>https://realfavicongenerator.net</dc:source></rdf:Description></rdf:RDF></metadata><path d="M284.102 211.721C283.338 214.12 282.925 216.675 282.925 219.327C282.925 222.395 283.477 225.334 284.488 228.051L499.122 600.029C501.998 604.63 506.783 607.915 512.367 608.777H622.339C634.57 607.134 644 596.657 644 583.977C644 580.611 643.335 577.401 642.131 574.47L377.272 117.562C372.682 112.027 365.753 108.502 358 108.502C350.181 108.502 343.201 112.087 338.612 117.703L284.102 211.721Z" fill="#007FFF"></path><path d="M271.517 300.259C266.932 294.511 259.867 290.827 251.942 290.827C244.695 290.827 238.168 293.906 233.598 298.829L74.0941 573.939C72.7471 577.012 72 580.407 72 583.977C72 596.657 81.4303 607.134 93.6606 608.777H204.825C210.141 607.956 214.732 604.94 217.643 600.683L327.05 411.007C327.8 408.821 328.208 406.475 328.208 404.035C328.208 400.922 327.545 397.964 326.352 395.294L271.517 300.259Z" fill="#007FFF"></path></svg>